<svg xmlns="http://www.w3.org/2000/svg" width="300" height="100" viewBox="0 0 300 100">
  <g fill="#FFF" transform="translate(5 16)">
    <g transform="translate(56.42 16.55)">
      <path d="M1.80544747 22.1919585C3.27237354 24.7120623 5.98054475 26.7431907 10.0051881 26.7431907 14.1802853 26.7431907 16.6627756 24.8625162 16.6627756 21.7405966 16.6627756 18.2049287 13.1271077 17.226978 9.2153048 16.3242542 5.1154345 15.3463035.902723735 14.0298314.902723735 8.65110246.902723735 4.40077821 4.7769131 1.20363165 9.96757458 1.20363165 15.5719844 1.20363165 18.919585 4.13748379 18.919585 5.86770428 18.919585 7.07133593 17.3398184 7.71076524 17.2645914 7.59792477 16.0233463 5.37872892 13.3904021 3.68612192 10.0428016 3.68612192 6.28145266 3.68612192 3.68612192 5.64202335 3.68612192 8.57587549 3.68612192 12.0363165 6.50713359 12.7509728 10.6070039 13.7289235 14.8949416 14.7444877 19.4461738 16.3242542 19.4461738 21.6653696 19.4461738 26.2542153 15.7224384 29.2632944 10.0428016 29.2632944 4.02464332 29.2632944.150453956 25.9156939.150453956 23.9597925.112840467 22.6809339 1.73022049 22.0415045 1.80544747 22.1919585zM22.304799 8.95201038C22.304799 8.8767834 22.7185473 8.65110246 23.2075227 8.65110246 24.1102464 8.65110246 24.9753567 9.10246433 24.9753567 11.2840467L24.9753567 11.773022C26.3670558 9.77950713 28.5486381 8.31258106 31.2568093 8.31258106 34.3787289 8.31258106 36.7859922 9.77950713 37.8391699 12.5629053 39.1932555 10.1932555 41.6005188 8.31258106 44.9105058 8.31258106 49.9130999 8.31258106 52.5836576 11.2088197 52.5836576 16.7003891L52.5836576 27.5706874C52.5836576 28.5862516 52.0946822 28.849546 51.3800259 28.849546L51.079118 28.849546C50.3644617 28.849546 49.8754864 28.5486381 49.8754864 27.5706874L49.8754864 16.8884565C49.8754864 12.9390402 48.1452659 10.8702983 44.7224384 10.8702983 42.2775616 10.8702983 39.9455253 12.4876783 38.7795071 14.8949416L38.7795071 27.5706874C38.7795071 28.5862516 38.2905318 28.849546 37.5758755 28.849546L37.2749676 28.849546C36.5603113 28.849546 36.0713359 28.5486381 36.0713359 27.5706874L36.0713359 17.076524C36.0713359 12.9014267 34.3411154 10.8702983 30.9182879 10.8702983 28.4734112 10.8702983 26.1413748 12.4876783 24.9753567 14.8949416L24.9753567 27.5706874C24.9753567 28.5862516 24.4863813 28.849546 23.771725 28.849546L23.4708171 28.849546C22.7561608 28.849546 22.2671855 28.5486381 22.2671855 27.5706874L22.2671855 8.95201038 22.304799 8.95201038zM68.9079118 16.8508431L69.3216602 16.8508431 69.3216602 16.1361868C69.3216602 12.7133593 67.3281453 10.8326848 63.7172503 10.8326848 60.5201038 10.8326848 58.4513619 12.4500649 57.3605707 14.5188067 57.3605707 14.5564202 55.8184176 14.4059663 55.8184176 12.9390402 55.8184176 11.5097276 58.6394293 8.35019455 63.9053178 8.35019455 68.9455253 8.35019455 71.9546044 11.2840467 71.9546044 16.0609598L71.9546044 28.5862516C71.9546044 28.6614786 71.540856 28.8871595 71.0518807 28.8871595 70.1491569 28.8871595 69.3216602 28.4357977 69.3216602 26.2542153L69.3216602 25.5019455C67.7418936 27.7963684 65.0713359 29.1880674 61.8741894 29.1880674 57.5486381 29.1880674 55.0285344 26.9688716 55.0285344 23.6212711 55.0661479 18.9571984 59.692607 17.0389105 68.9079118 16.8508431zM62.1750973 26.8936446C66.2749676 26.8936446 69.3216602 24.3359274 69.3216602 20.8002594L69.3216602 18.9571984 68.155642 18.9948119C61.3476005 19.2581064 57.849546 20.461738 57.849546 23.5836576 57.849546 25.614786 59.4669261 26.8936446 62.1750973 26.8936446zM75.7535668 8.95201038C75.7535668 8.8767834 76.1673152 8.65110246 76.6562905 8.65110246 77.5590143 8.65110246 78.4241245 9.10246433 78.4241245 11.2840467L78.4241245 12.4500649C79.2516213 9.74189364 81.0194553 8.31258106 83.690013 8.31258106 85.5330739 8.31258106 86.5862516 9.06485084 86.5862516 10.3437095 86.5862516 11.3592737 85.9092088 11.848249 85.8339818 11.773022 85.232166 11.2840467 84.5551232 10.9455253 83.4267185 10.9455253 79.8910506 10.9455253 78.4993515 14.6692607 78.4993515 19.7470817L78.4993515 27.5706874C78.4993515 28.5862516 78.0103761 28.849546 77.2957198 28.849546L76.9948119 28.849546C76.2801556 28.849546 75.7911803 28.5486381 75.7911803 27.5706874L75.7911803 8.95201038 75.7535668 8.95201038zM90.2723735 11.2464332L88.4293126 11.2464332C87.4137484 11.2464332 87.150454 10.8702983 87.150454 10.155642L87.150454 9.8923476C87.150454 9.17769131 87.4513619 8.80155642 88.4293126 8.80155642L90.2723735 8.80155642 90.2723735 5.34111543C90.2723735 4.32555123 90.7613489 4.06225681 91.4760052 4.06225681L91.7769131 4.06225681C92.4915694 4.06225681 92.9429313 4.36316472 92.9429313 5.34111543L92.9429313 8.80155642 98.2464332 8.80155642C99.2619974 8.80155642 99.5252918 9.17769131 99.5252918 9.8923476L99.5252918 10.155642C99.5252918 10.8702983 99.2243839 11.2464332 98.2464332 11.2464332L92.9429313 11.2464332 92.9429313 22.5680934C92.9429313 25.5019455 93.695201 26.8560311 95.9143969 26.8560311 97.306096 26.8560311 98.2840467 26.2542153 98.998703 25.3891051 99.07393 25.3138781 99.9014267 25.690013 99.9014267 26.7431907 99.9014267 27.8715953 98.4345006 29.1880674 95.8015564 29.1880674 91.9273671 29.1880674 90.2347601 26.9688716 90.2347601 22.8313878L90.2347601 11.2464332 90.2723735 11.2464332zM107.649805 3.27237354C107.649805 2.40726329 108.364462 1.692607 109.229572 1.692607L116.150454 1.692607C122.46952 1.692607 126.080415 4.66407263 126.080415 9.8923476 126.080415 15.2710765 122.582361 18.2049287 115.811933 18.2049287L110.470817 18.2049287 110.470817 27.6083009C110.470817 28.3229572 110.057069 28.8871595 109.229572 28.8871595L108.853437 28.8871595C108.063554 28.8871595 107.649805 28.4734112 107.649805 27.6083009L107.649805 3.27237354zM116.075227 15.6848249C120.776913 15.6848249 123.184176 13.69131 123.184176 9.96757458 123.184176 6.20622568 120.814527 4.25032425 116.225681 4.25032425L110.508431 4.25032425 110.508431 15.6848249 116.075227 15.6848249zM136.9131 8.31258106C142.51751 8.31258106 146.166018 12.2619974 146.166018 18.3177691L146.166018 18.5810636C146.166018 19.3333333 145.86511 19.4837873 145.037613 19.4837873L129.57847 19.4837873C129.80415 23.7341115 132.888457 26.7431907 137.138781 26.7431907 141.01297 26.7431907 142.780804 25.0881971 143.946822 23.2075227 144.022049 23.0946822 145.526589 23.4708171 145.526589 24.7496757 145.526589 26.1413748 142.51751 29.1880674 137.138781 29.1880674 131.083009 29.1880674 126.870298 24.9377432 126.870298 18.844358 126.907912 12.7885863 131.158236 8.31258106 136.9131 8.31258106zM143.307393 17.1893645C143.044099 13.2775616 140.636835 10.7198444 136.9131 10.7198444 133.151751 10.7198444 130.255512 13.3904021 129.69131 17.1893645L143.307393 17.1893645zM148.723735 8.95201038C148.723735 8.8767834 149.137484 8.65110246 149.626459 8.65110246 150.529183 8.65110246 151.394293 9.10246433 151.394293 11.2840467L151.394293 11.9610895C152.785992 9.81712062 155.080415 8.31258106 158.164721 8.31258106 163.43061 8.31258106 166.063554 11.8106355 166.063554 17.076524L166.063554 27.5706874C166.063554 28.5862516 165.574578 28.849546 164.859922 28.849546L164.559014 28.849546C163.844358 28.849546 163.355383 28.5486381 163.355383 27.5706874L163.355383 17.2645914C163.355383 13.3151751 161.399481 10.8702983 158.014267 10.8702983 154.929961 10.8702983 152.635538 12.6005188 151.46952 15.0830091L151.46952 27.5706874C151.46952 28.5862516 150.980545 28.849546 150.265888 28.849546L149.964981 28.849546C149.250324 28.849546 148.761349 28.5486381 148.761349 27.5706874L148.761349 8.95201038 148.723735 8.95201038zM169.787289 23.6964981C171.141375 25.539559 173.285344 26.8936446 176.595331 26.8936446 179.905318 26.8936446 181.748379 25.539559 181.748379 23.5460441 181.748379 21.1763943 179.642023 20.6498054 175.918288 19.8599222 172.833982 19.1828794 168.959792 18.3177691 168.959792 14.2931258 168.959792 10.7574578 171.968872 8.27496757 176.557717 8.27496757 181.409857 8.27496757 183.892348 10.5693904 183.892348 12.07393 183.892348 13.1271077 182.463035 13.616083 182.387808 13.5032425 181.259403 11.773022 179.265888 10.5693904 176.557717 10.5693904 173.285344 10.5693904 171.555123 11.9610895 171.555123 13.9169909 171.555123 16.0609598 173.435798 16.6251621 177.12192 17.4150454 180.319066 18.1297017 184.418936 18.9948119 184.418936 23.0946822 184.418936 26.7808042 181.409857 29.150454 176.557717 29.150454 171.254215 29.150454 168.357977 26.5927367 168.357977 25.0881971 168.320363 24.0350195 169.674449 23.6212711 169.787289 23.6964981zM186.901427 2.06874189C186.901427.865110246 187.540856.263294423 188.744488.263294423 189.910506.263294423 190.512322.865110246 190.512322 2.06874189 190.512322 3.27237354 189.872892 3.87418936 188.669261 3.87418936 187.540856 3.83657588 186.901427 3.23476005 186.901427 2.06874189zM187.315175 9.96757458C187.315175 8.95201038 187.80415 8.68871595 188.518807 8.68871595L188.819715 8.68871595C189.534371 8.68871595 190.023346 8.98962387 190.023346 9.96757458L190.023346 27.5706874C190.023346 28.5862516 189.534371 28.849546 188.819715 28.849546L188.518807 28.849546C187.80415 28.849546 187.315175 28.5486381 187.315175 27.5706874L187.315175 9.96757458zM203.11284 8.31258106C209.055772 8.31258106 213.343709 12.7509728 213.343709 18.8067445 213.343709 24.8249027 209.055772 29.1880674 203.11284 29.1880674 197.132296 29.1880674 192.844358 24.7496757 192.844358 18.693904 192.806744 12.7133593 197.132296 8.31258106 203.11284 8.31258106zM203.11284 26.8184176C207.363165 26.8184176 210.597925 23.4332036 210.597925 18.8067445 210.597925 14.1802853 207.438392 10.7198444 203.11284 10.7198444 198.787289 10.7198444 195.590143 14.1050584 195.590143 18.7315175 195.590143 23.3579767 198.787289 26.8184176 203.11284 26.8184176zM215.93904 8.95201038C215.93904 8.8767834 216.352789 8.65110246 216.841764 8.65110246 217.744488 8.65110246 218.609598 9.10246433 218.609598 11.2840467L218.609598 11.9610895C220.001297 9.81712062 222.29572 8.31258106 225.380026 8.31258106 230.645914 8.31258106 233.278859 11.8106355 233.278859 17.076524L233.278859 27.5706874C233.278859 28.5862516 232.789883 28.849546 232.075227 28.849546L231.774319 28.849546C231.059663 28.849546 230.570687 28.5486381 230.570687 27.5706874L230.570687 17.2645914C230.570687 13.3151751 228.614786 10.8702983 225.229572 10.8702983 222.145266 10.8702983 219.850843 12.6005188 218.684825 15.0830091L218.684825 27.5706874C218.684825 28.5862516 218.19585 28.849546 217.481193 28.849546L217.180285 28.849546C216.465629 28.849546 215.976654 28.5486381 215.976654 27.5706874L215.976654 8.95201038 215.93904 8.95201038z"/>
    </g>
    <ellipse cx="44.085" cy="9.934" rx="6.658" ry="8.651" transform="rotate(-9.178 44.085 9.934)"/>
    <path d="M33.2503243,21.3268482 C27.3450065,21.2516213 14.5940337,22.8690013 4.47600519,28.5486381 C4.21271077,28.6990921 4.36316472,29.075227 4.66407263,29 C17.9416342,25.9909209 27.6459144,27.6459144 32.4980545,31.4448768 C32.4980545,31.4448768 32.4980545,31.4448768 32.535668,31.4448768 C32.8741894,31.7081712 37.7263294,35.9584955 31.6705577,45.6627756 C26.8184176,53.2607004 16.3994812,61.6108949 0.300907912,65.3722438 C-0.112840467,65.4474708 -8.60422844e-16,66.0492866 0.413748379,66.0116732 C22.154345,63.3411154 36.0337224,55.0285344 44.0830091,40.0583658 C51.6057069,25.8780804 41.7133593,21.3268482 33.2503243,21.3268482 Z"/>
    <g transform="translate(55.292 53.411)">
      <path d="M2.36964981 5.60440986L.977950713 5.60440986C.488975357 5.60440986.338521401 5.41634241.338521401 5.07782101L.338521401 4.96498054C.338521401 4.62645914.488975357 4.4383917.977950713 4.4383917L2.36964981 4.4383917 2.36964981 3.57328145C2.36964981 1.39169909 3.34760052.188067445 5.19066148.188067445 6.4695201.188067445 7.10894942.714656291 7.10894942 1.31647211 7.10894942 1.76783398 6.77042802 1.99351492 6.73281453 1.95590143 6.4695201 1.692607 5.86770428 1.39169909 5.19066148 1.39169909 4.0998703 1.39169909 3.64850843 2.10635538 3.64850843 3.68612192L3.64850843 4.51361868 5.56679637 4.51361868C6.05577173 4.51361868 6.20622568 4.70168612 6.20622568 5.04020752L6.20622568 5.15304799C6.20622568 5.49156939 6.05577173 5.67963684 5.56679637 5.67963684L3.64850843 5.67963684 3.64850843 13.540856C3.64850843 14.0298314 3.4228275 14.1802853 3.0843061 14.1802853L2.93385214 14.1802853C2.59533074 14.1802853 2.36964981 14.0298314 2.36964981 13.540856L2.36964981 5.60440986zM14.5564202 8.27496757L14.7444877 8.27496757 14.7444877 7.93644617C14.7444877 6.28145266 13.766537 5.37872892 12.0363165 5.37872892 10.4941634 5.37872892 9.51621271 6.16861219 8.98962387 7.14656291 8.98962387 7.18417639 8.23735409 7.07133593 8.23735409 6.39429313 8.23735409 5.71725032 9.59143969 4.17509728 12.1491569 4.17509728 14.5940337 4.17509728 16.0233463 5.56679637 16.0233463 7.89883268L16.0233463 13.9169909C16.0233463 13.9546044 15.8352789 14.0674449 15.5719844 14.0674449 15.1206226 14.0674449 14.7444877 13.8417639 14.7444877 12.7885863L14.7444877 12.4124514C13.9922179 13.5032425 12.7133593 14.1802853 11.1712062 14.1802853 9.06485084 14.1802853 7.8612192 13.1271077 7.8612192 11.5097276 7.89883268 9.32814527 10.1180285 8.38780804 14.5564202 8.27496757zM11.3216602 13.1271077C13.2775616 13.1271077 14.7444877 11.8858625 14.7444877 10.1932555L14.7444877 9.32814527 14.1802853 9.36575875C10.9079118 9.47859922 9.2153048 10.080415 9.2153048 11.5849546 9.2153048 12.4876783 10.0051881 13.1271077 11.3216602 13.1271077zM19.4461738 11.5849546C20.0856031 12.4876783 21.1387808 13.1271077 22.7185473 13.1271077 24.2983139 13.1271077 25.2010376 12.4876783 25.2010376 11.5097276 25.2010376 10.381323 24.1854734 10.1180285 22.3800259 9.74189364 20.8754864 9.40337224 19.0324254 8.98962387 19.0324254 7.07133593 19.0324254 5.37872892 20.461738 4.17509728 22.6809339 4.17509728 25.0129702 4.17509728 26.2166018 5.26588846 26.2166018 6.01815824 26.2166018 6.50713359 25.539559 6.77042802 25.5019455 6.69520104 24.9753567 5.86770428 23.997406 5.30350195 22.6809339 5.30350195 21.1011673 5.30350195 20.2736706 5.98054475 20.2736706 6.92088197 20.2736706 7.93644617 21.1763943 8.23735409 22.9442283 8.61348898 24.4863813 8.95201038 26.4422827 9.36575875 26.4422827 11.3592737 26.4422827 13.1271077 25.0129702 14.2555123 22.6809339 14.2555123 20.1232166 14.2555123 18.7315175 13.0142672 18.7315175 12.2996109 18.7315175 11.7354086 19.4085603 11.5473411 19.4461738 11.5849546zM29.9779507 5.60440986L29.075227 5.60440986C28.5862516 5.60440986 28.4357977 5.41634241 28.4357977 5.07782101L28.4357977 4.96498054C28.4357977 4.62645914 28.5862516 4.4383917 29.075227 4.4383917L29.9779507 4.4383917 29.9779507 2.78339818C29.9779507 2.29442283 30.2036316 2.14396887 30.542153 2.14396887L30.692607 2.14396887C31.0311284 2.14396887 31.2568093 2.29442283 31.2568093 2.78339818L31.2568093 4.4383917 33.8145266 4.4383917C34.3035019 4.4383917 34.4539559 4.62645914 34.4539559 4.96498054L34.4539559 5.07782101C34.4539559 5.41634241 34.3035019 5.60440986 33.8145266 5.60440986L31.2568093 5.60440986 31.2568093 11.0583658C31.2568093 12.4500649 31.6329442 13.1271077 32.6861219 13.1271077 33.3631647 13.1271077 33.8145266 12.8638132 34.1906615 12.4124514 34.228275 12.3748379 34.6420233 12.5629053 34.6420233 13.0518807 34.6420233 13.5784695 33.9273671 14.2555123 32.6861219 14.2555123 30.8054475 14.2555123 30.0155642 13.2023346 30.0155642 11.2088197L30.0155642 5.60440986 29.9779507 5.60440986zM41.3372244 11.5849546C41.9766537 12.4876783 43.0298314 13.1271077 44.6095979 13.1271077 46.1893645 13.1271077 47.0920882 12.4876783 47.0920882 11.5097276 47.0920882 10.381323 46.076524 10.1180285 44.2710765 9.74189364 42.766537 9.40337224 40.923476 8.98962387 40.923476 7.07133593 40.923476 5.37872892 42.3527886 4.17509728 44.5719844 4.17509728 46.9040208 4.17509728 48.1076524 5.26588846 48.1076524 6.01815824 48.1076524 6.50713359 47.4306096 6.77042802 47.3929961 6.69520104 46.8664073 5.86770428 45.8884565 5.30350195 44.5719844 5.30350195 42.9922179 5.30350195 42.1647211 5.98054475 42.1647211 6.92088197 42.1647211 7.93644617 43.0674449 8.23735409 44.8352789 8.61348898 46.3774319 8.95201038 48.3333333 9.36575875 48.3333333 11.3592737 48.3333333 13.1271077 46.9040208 14.2555123 44.5719844 14.2555123 42.0142672 14.2555123 40.6225681 13.0142672 40.6225681 12.2996109 40.6225681 11.7354086 41.2996109 11.5473411 41.3372244 11.5849546zM55.4422827 4.17509728C58.150454 4.17509728 59.9182879 6.09338521 59.9182879 8.98962387L59.9182879 9.10246433C59.9182879 9.47859922 59.767834 9.5538262 59.3916991 9.5538262L51.9442283 9.5538262C52.0570687 11.5849546 53.5239948 13.0518807 55.5927367 13.0518807 57.4734112 13.0518807 58.3009079 12.2619974 58.8651102 11.3592737 58.9027237 11.2840467 59.61738 11.4721141 59.61738 12.1115435 59.61738 12.7885863 58.1880674 14.2555123 55.5927367 14.2555123 52.6964981 14.2555123 50.6653696 12.2243839 50.6653696 9.29053178 50.6277562 6.35667964 52.6964981 4.17509728 55.4422827 4.17509728zM58.5265888 8.46303502C58.4137484 6.58236057 57.2477302 5.34111543 55.4422827 5.34111543 53.6368353 5.34111543 52.2451362 6.61997406 51.9818418 8.46303502L58.5265888 8.46303502zM67.0272374 4.17509728C69.8106355 4.17509728 71.1271077 5.98054475 71.1271077 6.8080415 71.1271077 7.37224384 70.2996109 7.5226978 70.2619974 7.44747082 69.773022 6.24383917 68.8326848 5.34111543 66.9896239 5.34111543 64.9584955 5.34111543 63.3787289 6.95849546 63.3787289 9.17769131 63.3787289 11.3968872 64.920882 13.0518807 66.9896239 13.0518807 68.8326848 13.0518807 69.7354086 12.1115435 70.2619974 10.9455253 70.2996109 10.8702983 71.1271077 10.9831388 71.1271077 11.5849546 71.1271077 12.4500649 69.8106355 14.2178988 67.0272374 14.2178988 64.2062257 14.2178988 62.0998703 12.07393 62.0998703 9.17769131 62.0998703 6.28145266 64.2062257 4.17509728 67.0272374 4.17509728zM73.8728923 4.96498054C73.8728923 4.47600519 74.0985733 4.32555123 74.4370947 4.32555123L74.5875486 4.32555123C74.92607 4.32555123 75.151751 4.47600519 75.151751 4.96498054L75.151751 9.92996109C75.151751 11.848249 76.1297017 13.0142672 77.8223087 13.0142672 79.2140078 13.0142672 80.304799 12.1867704 80.8690013 10.9831388L80.8690013 4.96498054C80.8690013 4.47600519 81.0946822 4.32555123 81.4332036 4.32555123L81.5836576 4.32555123C81.922179 4.32555123 82.1478599 4.47600519 82.1478599 4.96498054L82.1478599 13.9169909C82.1478599 13.9546044 81.9597925 14.0674449 81.6964981 14.0674449 81.2451362 14.0674449 80.8690013 13.8417639 80.8690013 12.7885863L80.8690013 12.4876783C80.1919585 13.5032425 79.0635538 14.2178988 77.5966278 14.2178988 75.076524 14.2178988 73.7976654 12.5252918 73.7976654 10.0051881L73.7976654 4.96498054 73.8728923 4.96498054zM85.7211414 4.47600519C85.7211414 4.4383917 85.9092088 4.32555123 86.1725032 4.32555123 86.6238651 4.32555123 87 4.55123217 87 5.60440986L87 6.16861219C87.4137484 4.85214008 88.2412451 4.17509728 89.5201038 4.17509728 90.385214 4.17509728 90.9118029 4.55123217 90.9118029 5.15304799 90.9118029 5.64202335 90.5732815 5.86770428 90.535668 5.83009079 90.2723735 5.60440986 89.8962387 5.41634241 89.3696498 5.41634241 87.6770428 5.41634241 87 7.22178988 87 9.66666667L87 13.4280156C87 13.9169909 86.7743191 14.0674449 86.4357977 14.0674449L86.2853437 14.0674449C85.9468223 14.0674449 85.7211414 13.9169909 85.7211414 13.4280156L85.7211414 4.47600519zM97.381323 4.17509728C100.089494 4.17509728 101.857328 6.09338521 101.857328 8.98962387L101.857328 9.10246433C101.857328 9.47859922 101.706874 9.5538262 101.330739 9.5538262L93.8832685 9.5538262C93.9961089 11.5849546 95.463035 13.0518807 97.5317769 13.0518807 99.4124514 13.0518807 100.239948 12.2619974 100.80415 11.3592737 100.841764 11.2840467 101.55642 11.4721141 101.55642 12.1115435 101.55642 12.7885863 100.127108 14.2555123 97.5317769 14.2555123 94.6355383 14.2555123 92.6044099 12.2243839 92.6044099 9.29053178 92.5667964 6.35667964 94.5979248 4.17509728 97.381323 4.17509728zM100.465629 8.46303502C100.352789 6.58236057 99.1867704 5.34111543 97.381323 5.34111543 95.5758755 5.34111543 94.1841764 6.61997406 93.920882 8.46303502L100.465629 8.46303502zM109.793774 5.60440986L108.402075 5.60440986C107.9131 5.60440986 107.762646 5.41634241 107.762646 5.07782101L107.762646 4.96498054C107.762646 4.62645914 107.9131 4.4383917 108.402075 4.4383917L109.793774 4.4383917 109.793774 3.57328145C109.793774 1.39169909 110.771725.188067445 112.614786.188067445 113.893645.188067445 114.533074.714656291 114.533074 1.31647211 114.533074 1.76783398 114.194553 1.99351492 114.156939 1.95590143 113.893645 1.692607 113.291829 1.39169909 112.614786 1.39169909 111.523995 1.39169909 111.072633 2.10635538 111.072633 3.68612192L111.072633 4.51361868 112.990921 4.51361868C113.479896 4.51361868 113.63035 4.70168612 113.63035 5.04020752L113.63035 5.15304799C113.63035 5.49156939 113.479896 5.67963684 112.990921 5.67963684L111.072633 5.67963684 111.072633 13.540856C111.072633 14.0298314 110.846952 14.1802853 110.508431 14.1802853L110.357977 14.1802853C110.019455 14.1802853 109.793774 14.0298314 109.793774 13.540856L109.793774 5.60440986zM116.225681 4.47600519C116.225681 4.4383917 116.413748 4.32555123 116.677043 4.32555123 117.128405 4.32555123 117.50454 4.55123217 117.50454 5.60440986L117.50454 6.16861219C117.918288 4.85214008 118.745785 4.17509728 120.024643 4.17509728 120.889754 4.17509728 121.416342 4.55123217 121.416342 5.15304799 121.416342 5.64202335 121.077821 5.86770428 121.040208 5.83009079 120.776913 5.60440986 120.400778 5.41634241 119.874189 5.41634241 118.181582 5.41634241 117.50454 7.22178988 117.50454 9.66666667L117.50454 13.4280156C117.50454 13.9169909 117.278859 14.0674449 116.940337 14.0674449L116.789883 14.0674449C116.451362 14.0674449 116.225681 13.9169909 116.225681 13.4280156L116.225681 4.47600519zM127.885863 4.17509728C130.594034 4.17509728 132.361868 6.09338521 132.361868 8.98962387L132.361868 9.10246433C132.361868 9.47859922 132.211414 9.5538262 131.835279 9.5538262L124.387808 9.5538262C124.500649 11.5849546 125.967575 13.0518807 128.036316 13.0518807 129.916991 13.0518807 130.744488 12.2619974 131.30869 11.3592737 131.346304 11.2840467 132.06096 11.4721141 132.06096 12.1115435 132.06096 12.7885863 130.631647 14.2555123 128.036316 14.2555123 125.140078 14.2555123 123.108949 12.2243839 123.108949 9.29053178 123.071336 6.35667964 125.140078 4.17509728 127.885863 4.17509728zM130.970169 8.46303502C130.857328 6.58236057 129.69131 5.34111543 127.885863 5.34111543 126.080415 5.34111543 124.688716 6.61997406 124.425422 8.46303502L130.970169 8.46303502zM139.357977 4.17509728C142.066148 4.17509728 143.833982 6.09338521 143.833982 8.98962387L143.833982 9.10246433C143.833982 9.47859922 143.683528 9.5538262 143.307393 9.5538262L135.859922 9.5538262C135.972763 11.5849546 137.439689 13.0518807 139.508431 13.0518807 141.389105 13.0518807 142.216602 12.2619974 142.780804 11.3592737 142.818418 11.2840467 143.533074 11.4721141 143.533074 12.1115435 143.533074 12.7885863 142.103761 14.2555123 139.508431 14.2555123 136.612192 14.2555123 134.581064 12.2243839 134.581064 9.29053178 134.54345 6.35667964 136.612192 4.17509728 139.357977 4.17509728zM142.442283 8.46303502C142.329442 6.58236057 141.163424 5.34111543 139.357977 5.34111543 137.552529 5.34111543 136.16083 6.61997406 135.897536 8.46303502L142.442283 8.46303502z"/>
    </g>
  </g>
</svg>
